<?xml version="1.0" standalone="no"?>
<!DOCTYPE svg PUBLIC "-//W3C//DTD SVG 20010904//EN"
 "http://www.w3.org/TR/2001/REC-SVG-20010904/DTD/svg10.dtd">
<svg version="1.0" xmlns="http://www.w3.org/2000/svg"
 width="300.000000pt" height="300.000000pt" viewBox="0 0 300.000000 300.000000"
 preserveAspectRatio="xMidYMid meet">
<metadata>
Created by potrace 1.10, written by Peter Selinger 2001-2011
</metadata>
<g transform="translate(0.000000,300.000000) scale(0.100000,-0.100000)"
fill="#000000" stroke="none">
<path d="M1227 2656 c-73 -27 -107 -76 -107 -154 0 -63 30 -109 90 -139 42
-22 55 -23 290 -23 235 0 248 1 290 23 118 59 123 215 10 281 -32 20 -53 21
-285 23 -194 2 -259 0 -288 -11z m526 -55 c62 -24 87 -101 51 -156 -26 -39
-63 -45 -304 -45 -241 0 -278 6 -304 45 -19 29 -20 93 -2 117 33 44 60 48 303
48 127 0 243 -4 256 -9z"/>
<path d="M1334 2235 c-138 -30 -258 -94 -370 -198 -165 -154 -247 -343 -247
-572 0 -129 18 -213 68 -322 104 -225 293 -382 535 -444 78 -20 297 -18 376 4
283 78 502 302 571 584 21 90 22 266 0 355 -61 251 -240 459 -477 555 -130 52
-319 68 -456 38z m391 -78 c113 -37 198 -90 285 -177 192 -193 261 -452 189
-712 -119 -430 -620 -654 -1016 -454 -258 129 -406 367 -407 651 0 130 17 205
73 320 96 194 261 329 471 385 110 29 293 23 405 -13z"/>
<path d="M512 2144 c-18 -10 -44 -31 -57 -48 -13 -17 -57 -137 -100 -270 -88
-274 -89 -294 -26 -358 68 -68 161 -70 227 -4 27 27 44 69 108 268 42 131 76
253 76 275 0 44 -28 94 -72 126 -36 27 -114 32 -156 11z m118 -59 c69 -36 66
-67 -28 -350 l-77 -230 -38 -19 c-34 -16 -42 -17 -75 -4 -25 9 -44 26 -57 50
l-19 37 63 197 c34 109 72 222 83 251 28 77 83 102 148 68z"/>
<path d="M2360 2149 c-57 -23 -100 -85 -100 -145 0 -20 34 -143 76 -272 64
-199 81 -241 108 -268 66 -66 159 -64 227 4 63 64 62 83 -26 358 -44 137 -87
252 -100 270 -42 55 -121 78 -185 53z m110 -64 c33 -17 41 -36 131 -319 l63
-197 -19 -37 c-13 -24 -32 -41 -57 -50 -33 -13 -41 -12 -75 4 l-38 19 -77 230
c-94 281 -96 313 -30 349 35 19 66 20 102 1z"/>
<path d="M644 901 c-80 -36 -115 -131 -79 -212 15 -33 52 -64 219 -186 111
-81 219 -153 240 -160 97 -34 206 47 206 152 0 74 -26 101 -235 254 -250 182
-268 190 -351 152z m112 -54 c57 -34 377 -273 394 -295 60 -76 -32 -192 -118
-150 -46 23 -391 278 -407 301 -56 80 47 194 131 144z"/>
<path d="M2233 905 c-17 -7 -120 -78 -228 -156 -209 -153 -235 -180 -235 -254
0 -105 109 -186 206 -152 21 7 129 79 240 160 167 122 204 153 219 186 36 81
1 176 -79 212 -49 22 -80 23 -123 4z m107 -62 c48 -28 65 -97 35 -140 -16 -23
-358 -276 -405 -300 -88 -43 -181 72 -120 149 17 22 337 261 394 295 29 17 63
16 96 -4z"/>
</g>
</svg>
